<svg width="15" height="17" viewBox="0 0 15 17" fill="none" xmlns="http://www.w3.org/2000/svg">
<path d="M10.5156 0.5C11.6723 0.5 12.6297 0.732498 13.291 1.29004C13.9183 1.81902 14.2656 2.48343 14.2656 3.26562C14.2656 4.27498 13.8612 5.21573 13.1123 6.07812L13.1104 6.08008C12.1319 7.19354 10.7165 8.06659 8.9043 8.7207L8.90332 8.71973C7.75703 9.13897 6.20304 9.46272 4.25879 9.7002C4.22067 10.037 4.20312 10.3183 4.20312 10.5469C4.20312 11.3398 4.47746 12.0035 5.03809 12.5654C5.59892 13.1174 6.26918 13.3906 7.07812 13.3906C7.75879 13.3906 8.40902 13.2538 9.0332 12.9795C9.63298 12.7103 10.5441 12.1213 11.7832 11.1787L11.8506 11.1318C12.1999 10.9185 12.6644 11.0028 12.9121 11.3447C13.1421 11.6624 13.1075 12.1043 12.8223 12.3809C10.3748 14.7534 7.9628 16.0156 5.59375 16.0156C3.96089 16.0156 2.65455 15.4955 1.7666 14.3916C0.929214 13.3505 0.5 12.184 0.5 10.9062C0.5 9.2474 1.01291 7.57209 2.00684 5.88672C3.00128 4.20049 4.25833 2.87837 5.78125 1.93555C7.29922 0.985448 8.87998 0.5 10.5156 0.5ZM9.9375 2.28125C9.05807 2.28125 8.04534 2.75318 6.89062 3.84766C5.92032 4.76698 5.15161 6.10162 4.60742 7.88867C5.77769 7.71079 6.73354 7.45246 7.48535 7.12109C8.71931 6.56908 9.6027 5.92904 10.1729 5.21875V5.21777C10.7774 4.46702 11.0312 3.81436 11.0312 3.25C11.0312 2.93048 10.9337 2.71262 10.7627 2.54785L10.7559 2.54102C10.6067 2.39189 10.3609 2.28125 9.9375 2.28125Z" fill="white" stroke="black"/>
</svg>
